<svg xmlns="http://www.w3.org/2000/svg" xmlns:xlink="http://www.w3.org/1999/xlink" viewBox="0 0 625.02 625.02"><defs><style>.cls-1{opacity:0.15;fill:url(#linear-gradient);}.cls-2{fill:#2a94f4;}</style><linearGradient id="linear-gradient" x1="512.89" y1="689.76" x2="327.99" y2="369.5" gradientUnits="userSpaceOnUse"><stop offset="0" stop-color="#43aced" stop-opacity="0"/><stop offset="1" stop-color="#231f20"/></linearGradient></defs><title>Multimedia Icons</title><g id="Layer_2" data-name="Layer 2"><path class="cls-1" d="M128.3,484.79,326.21,625H625V422.81L509.19,307.69s32.51,163.12-43.06,183.54-337.83-6.44-337.83-6.44"/></g><g id="Layer_1" data-name="Layer 1"><path class="cls-2" d="M509.19,307.69a11.9,11.9,0,0,0-12,11.95V428.38A53.64,53.64,0,0,1,443.66,482H181.36a53.65,53.65,0,0,1-53.57-53.58V317.87a12,12,0,1,0-23.91,0V428.38a77.56,77.56,0,0,0,77.48,77.48h262.3a77.56,77.56,0,0,0,77.48-77.48V319.64a12,12,0,0,0-11.95-11.95Zm0,0"/><path class="cls-2" d="M304.1,410.94a12,12,0,0,0,8.41,3.54,11.66,11.66,0,0,0,8.41-3.54l76-76A12,12,0,0,0,380,318.05l-55.52,55.61V131.11a12,12,0,0,0-23.91,0V373.66L245,318.05A12,12,0,0,0,228,335Zm0,0"/></g></svg>